<svg width="3148" height="1834" viewBox="0 0 3148 1834" fill="none" xmlns="http://www.w3.org/2000/svg">
<path d="M72.5162 1015.5C-23.8838 749.9 284.35 461.83 450.516 351C876.516 52.998 1498.35 16.831 1756.02 35.998C2586.52 81.998 2855.52 351 3039.02 643C3184.15 873.95 3018.18 1187.16 2896.02 1330.5C2785.18 1437.33 2455.92 1670.5 2025.52 1748.5C1487.52 1846 926.016 1794 513.516 1576.5C101.016 1359 193.016 1347.5 72.5162 1015.5Z" fill="#F4F4FC"/>
<path d="M3046.88 832.53C3070.79 1303.66 2431.01 1719.03 1617.9 1760.3C804.786 1801.57 126.246 1453.08 102.346 981.95C78.4462 510.82 718.206 95.448 1531.32 54.188C2344.43 12.928 3022.97 361.4 3046.88 832.53ZM1527.54 3.53805C658.686 47.6281 -24.9038 492.25 0.696183 996.61C26.2962 1500.97 751.376 1874.11 1620.23 1830.02C2489.08 1785.93 3172.67 1341.32 3147.08 836.95C3121.48 332.578 2396.39 -40.552 1527.54 3.53805Z" fill="#0097D6"/>
<path d="M1469.52 285.498C1574.52 528.5 1465.52 691.5 1434.52 884.5C1417.52 995.5 1349.52 1309.5 1469.52 1386.5C1556.52 1455.5 1816.52 1290.5 1971.52 1418.5L1947.52 1480.5C1893.13 1469.18 1851.52 1434.5 1774.52 1439.5C1666.52 1445.5 1567.52 1503.5 1455.52 1496.5C1455.52 1496.5 1303.52 1499.5 1305.52 1196.5C1303.52 1076.5 1374.52 849.5 1305.52 823.5C1305.52 823.5 1243.52 781.5 1053.52 891.5C1053.52 891.5 974.516 927.5 834.516 931.5C834.516 931.5 727.516 1164.5 839.516 1459.5L741.516 1481.5C741.516 1481.5 616.516 1300.5 742.516 875.5C791.516 582.5 797.516 441.5 743.516 317.498L840.516 276.498C840.516 276.498 927.516 511.5 867.516 692.5C818.516 871.5 872.516 871.5 891.516 880.5C948.516 884.5 980.276 871.61 1146.52 798.5C1312.52 725.5 1359.52 758.5 1377.52 774.5C1377.52 774.5 1452.52 544.5 1381.52 297.498C1381.52 297.498 1308.52 307.498 1469.52 285.498Z" fill="#DDDCD7"/>
<path d="M1418.52 317.498C1523.52 560.5 1414.52 723.5 1383.52 916.5C1366.52 1027.5 1298.52 1341.5 1418.52 1418.5C1505.52 1487.5 1765.52 1322.5 1920.52 1450.5L1896.52 1512.5C1842.13 1501.18 1800.52 1466.5 1723.52 1471.5C1615.52 1477.5 1516.52 1535.5 1404.52 1528.5C1404.52 1528.5 1252.52 1531.5 1254.52 1228.5C1252.52 1108.5 1323.52 881.5 1254.52 855.5C1254.52 855.5 1192.52 813.5 1002.52 923.5C1002.52 923.5 923.516 959.5 783.516 963.5C783.516 963.5 676.516 1196.5 788.516 1491.5L690.516 1513.5C690.516 1513.5 565.516 1332.5 691.516 907.5C740.516 614.5 746.516 473.5 692.516 349.5L789.516 308.498C789.516 308.498 876.516 543.5 816.516 724.5C767.516 903.5 821.516 903.5 840.516 912.5C897.516 916.5 929.276 903.61 1095.52 830.5C1261.52 757.5 1308.52 790.5 1326.52 806.5C1326.52 806.5 1401.52 576.5 1330.52 329.498L1418.52 317.498Z" fill="#0097D6"/>
<path d="M1602.52 752.5C1589.52 782.5 1583.3 824.44 1618.52 835.5C1688.22 857.38 1757.52 813.5 1774.52 782.5C1803.52 736.5 1836.52 653.5 1841.52 631.5C1841.52 631.5 1859.52 576.5 1813.52 564.5C1767.52 552.5 1718.52 563.5 1683.52 596.5C1648.52 629.5 1621.02 716 1602.52 752.5Z" fill="#DDDCD7"/>
<path d="M1630.52 627.5C1665.52 594.5 1714.52 583.5 1760.52 595.5C1806.52 607.5 1788.52 662.5 1788.52 662.5C1783.52 684.5 1750.52 767.5 1721.52 813.5C1704.52 844.5 1635.22 888.38 1565.52 866.5C1530.3 855.44 1536.52 813.5 1549.52 783.5C1568.02 747 1595.52 660.5 1630.52 627.5ZM1647.87 798.95C1648.31 797.99 1648.78 797.07 1649.31 796.15C1661.72 774.52 1689.25 706.28 1711.52 652.49C1712.46 650.33 1712.82 647.26 1712.15 644.86C1711.57 642.8 1709.67 641.41 1707.54 641.36C1703.51 641.27 1694.44 642.05 1690.89 650.45L1622.52 810.5C1615.52 823.5 1629.52 822.5 1629.52 822.5C1636.04 822.5 1644.54 806.24 1647.87 798.95Z" fill="#0097D6"/>
<path d="M1914.52 740.5H1841.52C1834.52 760.5 1800.84 805.99 1838.52 830.5C1838.52 830.5 1912.52 866.5 1981.52 806.5C2020.52 763.5 2021.52 724.5 2021.52 724.5C2021.52 724.5 2021.52 696.5 1997.52 683.5C1973.52 670.5 1958.52 657.5 1956.52 647.5C1955.52 639.5 1966.85 624.9 1972.52 612.5C1972.52 612.5 1996.52 601.5 1988.52 623.5C1981.52 643.5 1977.52 646.5 1977.52 646.5C1977.52 646.5 1973.52 656.5 1988.52 654.5H2041.52C2041.52 654.5 2052.52 655.5 2057.52 637.5C2057.52 637.5 2061.52 625.5 2067.52 598.5C2070.52 567.5 2020.52 560.5 2020.52 560.5C2020.52 560.5 1933.52 551.5 1899.52 605.5C1865.52 659.5 1871.52 679.5 1871.52 679.5C1871.52 679.5 1874.52 698.5 1891.52 710.5C1908.52 722.5 1925.52 737.5 1925.52 737.5C1930.89 740.22 1944.52 747.5 1917.52 789.5C1918.13 789.32 1897.52 793.5 1897.52 786.5C1896.52 780.5 1910.52 751.5 1914.52 740.5Z" fill="#DDDCD7"/>
<path d="M1851.07 771.5H1791.85C1789.31 771.5 1787.01 773 1786.01 775.34C1776.8 796.76 1749.31 838.12 1784.1 861.23C1784.39 861.42 1784.69 861.59 1785.01 861.73C1791.48 864.68 1861.55 894.57 1927.2 837.79C1927.42 837.6 1927.63 837.4 1927.82 837.19C1966.53 794.31 1967.52 755.5 1967.52 755.5C1967.52 755.5 1967.52 727.5 1943.52 714.5C1919.9 701.7 1904.99 688.91 1902.62 678.97C1902.54 678.65 1902.49 678.34 1902.47 678.01C1901.99 670.39 1911.71 657.3 1917.49 645.65C1918.23 644.16 1919.51 643.04 1921.08 642.48C1927.04 640.36 1940.88 637.02 1934.52 654.49C1929.48 668.89 1927.08 671.49 1925.52 673.49C1925.52 673.49 1916.52 686.49 1934.14 685.54C1934.39 685.51 1934.65 685.49 1934.91 685.49H1987.52C1987.52 685.49 1998.52 686.49 2003.52 668.49C2003.52 668.49 2007.47 656.63 2013.42 629.95C2013.49 629.65 2013.54 629.33 2013.56 629.02C2016.02 598.43 1966.52 591.5 1966.52 591.5C1966.52 591.5 1879.52 582.5 1845.52 636.5C1811.52 690.5 1817.52 710.5 1817.52 710.5C1817.52 710.5 1820.52 729.5 1837.52 741.5C1852.69 752.21 1867.86 765.3 1870.95 768C1871.32 768.32 1871.72 768.6 1872.15 768.83C1877.73 771.75 1889.02 779.73 1865.1 818.01C1864.09 819.62 1862.42 820.7 1860.54 820.96C1854.96 821.73 1843.52 822.72 1843.52 817.5C1842.73 812.75 1851.33 793.59 1856.94 780.36C1858.72 776.15 1855.64 771.5 1851.07 771.5Z" fill="#0097D6"/>
<path d="M2135.52 570.5L2153.52 529.5H2237.52L2220.52 570.5H2234.59C2237.89 570.5 2240.14 573.86 2238.88 576.91L2222.52 616.5H2200.52L2128.11 782.84C2127.18 784.97 2127.87 787.47 2129.77 788.82L2131.43 790.01C2132.79 790.98 2134.41 791.5 2136.08 791.5H2148.52L2130.52 835.5H2073.52C2067.11 835.3 2037.37 835.01 2037.52 810.5C2036.52 794.5 2047.52 775.5 2052.52 764.5L2116.52 616.5H2096.52L2115.05 575.9C2116.55 572.61 2119.84 570.5 2123.45 570.5H2135.52Z" fill="#DDDCD7"/>
<path d="M2083.52 601.5L2101.52 560.5H2185.52L2168.52 601.5H2182.59C2185.89 601.5 2188.14 604.86 2186.88 607.91L2170.52 647.5H2148.52L2076.11 813.84C2075.18 815.97 2075.87 818.47 2077.77 819.82L2079.43 821.01C2080.79 821.98 2082.41 822.5 2084.08 822.5H2096.52L2078.52 866.5H2021.52C2015.11 866.3 1985.37 866.01 1985.52 841.5C1984.52 825.5 1995.52 806.5 2000.52 795.5L2064.52 647.5H2044.52L2063.05 606.9C2064.55 603.61 2067.84 601.5 2071.45 601.5H2083.52Z" fill="#0097D6"/>
<path d="M2302.52 706.5H2408.52C2408.52 706.5 2497.52 561.5 2379.52 559.5C2283.52 559.5 2256.52 623.5 2240.52 657.5C2240.52 656.5 2201.52 744.5 2201.52 744.5C2201.52 744.5 2171.52 810.5 2209.52 830.5C2254.52 853.5 2334.52 843.5 2379.52 769.5C2379.03 769.54 2395.52 739.5 2400.52 721.5H2322.52C2314.13 732.69 2301.87 789.43 2277.11 791.87C2273.9 792.19 2271.15 789.51 2271.49 786.31C2273.91 763.72 2302.52 706.5 2302.52 706.5Z" fill="#DDDCD7"/>
<path d="M2218.49 817.3C2218.15 820.5 2220.9 823.18 2224.11 822.86C2248.86 820.42 2261.13 763.68 2269.52 752.49H2347.52C2342.52 770.49 2326.03 800.53 2326.52 800.49C2281.52 874.49 2201.52 884.49 2156.52 861.49C2118.52 841.49 2148.52 775.49 2148.52 775.49C2148.52 775.49 2187.52 687.49 2187.52 688.49C2203.52 654.49 2230.52 590.49 2326.52 590.49C2444.52 592.49 2355.52 737.49 2355.52 737.49H2249.52C2249.52 737.5 2220.91 794.72 2218.49 817.3ZM2269.52 690.5H2291.52L2304.52 660.5C2307.45 651.09 2310.52 643.5 2303.96 640.47C2300.01 638.5 2291.16 643.36 2285.44 654.69L2269.52 690.5Z" fill="#0097D6"/>
<path d="M2506.52 775.5C2506.52 775.5 2559.6 651.95 2574.71 619.35C2576.07 616.42 2578.39 614.04 2581.29 612.64C2592.24 607.35 2592.39 617.9 2591.18 625.84C2590.56 629.88 2589.38 633.82 2587.72 637.55L2573.52 669.5H2651.52C2656.41 659.99 2684.52 607.5 2661.52 581.5C2636.66 546.45 2545.52 558.5 2509.52 598.5C2501.21 605.99 2495.11 613.67 2490.72 620.14C2489.34 622.17 2488.17 624.32 2487.2 626.58L2425.52 770.5C2425.52 770.5 2399.52 842.5 2481.52 842.5C2563.52 842.5 2601.52 790.5 2628.52 725.5H2551.52L2532.52 773.5C2532.52 773.5 2521.52 794.5 2511.52 792.5C2498.52 792.5 2506.52 775.5 2506.52 775.5Z" fill="#DDDCD7"/>
<path d="M2454.52 805.5C2454.52 805.5 2507.6 681.95 2522.71 649.35C2524.07 646.42 2526.39 644.04 2529.29 642.64C2540.24 637.35 2540.39 647.9 2539.18 655.84C2538.56 659.88 2537.38 663.82 2535.72 667.55L2521.52 699.5H2599.52C2604.41 689.99 2632.52 637.5 2609.52 611.5C2584.66 576.45 2493.52 588.5 2457.52 628.5C2449.21 635.99 2443.11 643.67 2438.72 650.14C2437.34 652.17 2436.17 654.32 2435.2 656.58L2373.52 800.5C2373.52 800.5 2347.52 872.5 2429.52 872.5C2511.52 872.5 2549.52 820.5 2576.52 755.5H2499.52L2480.52 803.5C2480.52 803.5 2469.52 824.5 2459.52 822.5C2446.52 822.5 2454.52 805.5 2454.52 805.5Z" fill="#0097D6"/>
<path d="M2102.52 1441.5L2095.52 1460.5H2176.52L2255.52 1279.5C2255.52 1279.5 2308.52 1188.5 2211.52 1185.5C2108.52 1187.5 2078.52 1250.5 2062.52 1296.5H2140.52L2156.52 1259.5C2156.52 1259.5 2168.52 1232.5 2182.52 1238.5C2192.52 1239.5 2168.52 1285.5 2168.52 1285.5C2156.52 1299.5 2111.56 1311.01 2079.52 1323.5C2079.52 1323.5 2051.44 1332.56 2039.25 1354.99C2037.22 1358.72 2035 1362.34 2032.63 1365.86C2024.5 1377.96 2015.14 1392.54 2008.52 1421.5C2000.52 1456.5 2021.52 1462.5 2021.52 1462.5C2068.13 1477.93 2090.52 1450.5 2102.52 1441.5Z" fill="#DDDCD7"/>
<path d="M1973.52 1494.5C1973.52 1494.5 1952.52 1488.5 1960.52 1453.5C1967.14 1424.54 1976.5 1409.96 1984.63 1397.86C1987 1394.34 1989.22 1390.72 1991.25 1386.99C2003.44 1364.56 2031.52 1355.5 2031.52 1355.5C2063.56 1343.01 2108.52 1331.5 2120.52 1317.5C2120.52 1317.5 2144.52 1271.5 2134.52 1270.5C2120.52 1264.5 2108.52 1291.5 2108.52 1291.5L2092.52 1328.5H2014.52C2030.52 1282.5 2060.52 1219.5 2163.52 1217.5C2260.52 1220.5 2207.52 1311.5 2207.52 1311.5L2128.52 1492.5H2047.52L2054.52 1473.5C2042.52 1482.5 2020.13 1509.93 1973.52 1494.5ZM2098.02 1369C2098.02 1369 2068.02 1374 2048.02 1431C2040.16 1458.5 2063.17 1456.1 2073.47 1426.63C2074.01 1425.08 2074.64 1423.56 2075.28 1422.04L2098.02 1369Z" fill="#0097D6"/>
<path d="M2370.52 1136.5L2227.52 1464.5H2306.52L2317.52 1446.5C2327.52 1452.5 2322.52 1473.5 2357.52 1470.5C2407.52 1466.5 2423.52 1448.5 2460.52 1366.5C2497.52 1284.5 2511.52 1248.5 2511.52 1248.5C2533.52 1211.5 2506.52 1159.5 2423.52 1210.5C2432.62 1190.2 2445.15 1162.06 2451.85 1147C2454.05 1142.06 2450.43 1136.5 2445.02 1136.5H2370.52Z" fill="#DDDCD7"/>
<path d="M2394.02 1166.5C2399.43 1166.5 2403.04 1172.06 2400.85 1177C2394.15 1192.06 2381.62 1220.2 2372.52 1240.5C2455.52 1189.5 2482.52 1241.5 2460.52 1278.5C2460.52 1278.5 2446.52 1314.5 2409.52 1396.5C2372.52 1478.5 2356.52 1496.5 2306.52 1500.5C2271.52 1503.5 2276.52 1482.5 2266.52 1476.5L2255.52 1494.5H2176.52L2319.52 1166.5H2394.02ZM2284.52 1440.5C2280.52 1447.5 2290.52 1465.5 2307.52 1436.5L2377.52 1274.5C2377.52 1274.5 2378.52 1269.5 2365.52 1271.5C2354.52 1274.5 2354.52 1283.5 2351.52 1288.5C2348.52 1293.5 2284.52 1440.5 2284.52 1440.5Z" fill="#0097D6"/>
</svg>
