<svg width="3148" height="3148" viewBox="0 0 3148 3148" fill="none" xmlns="http://www.w3.org/2000/svg">
<g id="Logo Hostec Lab" clip-path="url(#clip0_1_87)">
<g id="Group">
<path id="Vector 1" d="M72.5163 1672.5C-23.8837 1406.9 284.35 1118.83 450.516 1008C876.516 709.998 1498.35 673.831 1756.02 692.998C2586.52 738.998 2855.52 1008 3039.02 1300C3184.15 1530.95 3018.18 1844.16 2896.02 1987.5C2785.18 2094.33 2455.92 2327.5 2025.52 2405.5C1487.52 2503 926.016 2451 513.516 2233.5C101.016 2016 193.016 2004.5 72.5163 1672.5Z" fill="#F4F4FC"/>
<path id="Vector" d="M3046.88 1489.53C3070.79 1960.66 2431.01 2376.03 1617.9 2417.3C804.786 2458.57 126.246 2110.08 102.346 1638.95C78.4462 1167.82 718.206 752.448 1531.32 711.188C2344.43 669.928 3022.97 1018.4 3046.88 1489.53ZM1527.54 660.538C658.686 704.628 -24.9038 1149.25 0.696184 1653.61C26.2962 2157.97 751.376 2531.11 1620.23 2487.02C2489.08 2442.93 3172.67 1998.32 3147.08 1493.95C3121.48 989.578 2396.39 616.448 1527.54 660.538Z" fill="#0097D6"/>
<path id="Vector_2" d="M1469.52 942.498C1574.52 1185.5 1465.52 1348.5 1434.52 1541.5C1417.52 1652.5 1349.52 1966.5 1469.52 2043.5C1556.52 2112.5 1816.52 1947.5 1971.52 2075.5L1947.52 2137.5C1893.13 2126.18 1851.52 2091.5 1774.52 2096.5C1666.52 2102.5 1567.52 2160.5 1455.52 2153.5C1455.52 2153.5 1303.52 2156.5 1305.52 1853.5C1303.52 1733.5 1374.52 1506.5 1305.52 1480.5C1305.52 1480.5 1243.52 1438.5 1053.52 1548.5C1053.52 1548.5 974.516 1584.5 834.516 1588.5C834.516 1588.5 727.516 1821.5 839.516 2116.5L741.516 2138.5C741.516 2138.5 616.516 1957.5 742.516 1532.5C791.516 1239.5 797.516 1098.5 743.516 974.498L840.516 933.498C840.516 933.498 927.516 1168.5 867.516 1349.5C818.516 1528.5 872.516 1528.5 891.516 1537.5C948.516 1541.5 980.276 1528.61 1146.52 1455.5C1312.52 1382.5 1359.52 1415.5 1377.52 1431.5C1377.52 1431.5 1452.52 1201.5 1381.52 954.498C1381.52 954.498 1308.52 964.498 1469.52 942.498Z" fill="#DDDCD7"/>
<path id="Vector_3" d="M1418.52 974.498C1523.52 1217.5 1414.52 1380.5 1383.52 1573.5C1366.52 1684.5 1298.52 1998.5 1418.52 2075.5C1505.52 2144.5 1765.52 1979.5 1920.52 2107.5L1896.52 2169.5C1842.13 2158.18 1800.52 2123.5 1723.52 2128.5C1615.52 2134.5 1516.52 2192.5 1404.52 2185.5C1404.52 2185.5 1252.52 2188.5 1254.52 1885.5C1252.52 1765.5 1323.52 1538.5 1254.52 1512.5C1254.52 1512.5 1192.52 1470.5 1002.52 1580.5C1002.52 1580.5 923.516 1616.5 783.516 1620.5C783.516 1620.5 676.516 1853.5 788.516 2148.5L690.516 2170.5C690.516 2170.5 565.516 1989.5 691.516 1564.5C740.516 1271.5 746.516 1130.5 692.516 1006.5L789.516 965.498C789.516 965.498 876.516 1200.5 816.516 1381.5C767.516 1560.5 821.516 1560.5 840.516 1569.5C897.516 1573.5 929.276 1560.61 1095.52 1487.5C1261.52 1414.5 1308.52 1447.5 1326.52 1463.5C1326.52 1463.5 1401.52 1233.5 1330.52 986.498L1418.52 974.498Z" fill="#0097D6"/>
<path id="Vector_4" d="M1602.52 1409.5C1589.52 1439.5 1583.3 1481.44 1618.52 1492.5C1688.22 1514.38 1757.52 1470.5 1774.52 1439.5C1803.52 1393.5 1836.52 1310.5 1841.52 1288.5C1841.52 1288.5 1859.52 1233.5 1813.52 1221.5C1767.52 1209.5 1718.52 1220.5 1683.52 1253.5C1648.52 1286.5 1621.02 1373 1602.52 1409.5Z" fill="#DDDCD7"/>
<path id="Vector_5" d="M1630.52 1284.5C1665.52 1251.5 1714.52 1240.5 1760.52 1252.5C1806.52 1264.5 1788.52 1319.5 1788.52 1319.5C1783.52 1341.5 1750.52 1424.5 1721.52 1470.5C1704.52 1501.5 1635.22 1545.38 1565.52 1523.5C1530.3 1512.44 1536.52 1470.5 1549.52 1440.5C1568.02 1404 1595.52 1317.5 1630.52 1284.5ZM1647.87 1455.95C1648.31 1454.99 1648.78 1454.07 1649.31 1453.15C1661.72 1431.52 1689.25 1363.28 1711.52 1309.49C1712.46 1307.33 1712.82 1304.26 1712.15 1301.86C1711.57 1299.8 1709.67 1298.41 1707.54 1298.36C1703.51 1298.27 1694.44 1299.05 1690.89 1307.45L1622.52 1467.5C1615.52 1480.5 1629.52 1479.5 1629.52 1479.5C1636.04 1479.5 1644.54 1463.24 1647.87 1455.95Z" fill="#0097D6"/>
<path id="Vector_6" d="M1914.52 1397.5H1841.52C1834.52 1417.5 1800.84 1462.99 1838.52 1487.5C1838.52 1487.5 1912.52 1523.5 1981.52 1463.5C2020.52 1420.5 2021.52 1381.5 2021.52 1381.5C2021.52 1381.5 2021.52 1353.5 1997.52 1340.5C1973.52 1327.5 1958.52 1314.5 1956.52 1304.5C1955.52 1296.5 1966.85 1281.9 1972.52 1269.5C1972.52 1269.5 1996.52 1258.5 1988.52 1280.5C1981.52 1300.5 1977.52 1303.5 1977.52 1303.5C1977.52 1303.5 1973.52 1313.5 1988.52 1311.5H2041.52C2041.52 1311.5 2052.52 1312.5 2057.52 1294.5C2057.52 1294.5 2061.52 1282.5 2067.52 1255.5C2070.52 1224.5 2020.52 1217.5 2020.52 1217.5C2020.52 1217.5 1933.52 1208.5 1899.52 1262.5C1865.52 1316.5 1871.52 1336.5 1871.52 1336.5C1871.52 1336.5 1874.52 1355.5 1891.52 1367.5C1908.52 1379.5 1925.52 1394.5 1925.52 1394.5C1930.89 1397.22 1944.52 1404.5 1917.52 1446.5C1918.13 1446.32 1897.52 1450.5 1897.52 1443.5C1896.52 1437.5 1910.52 1408.5 1914.52 1397.5Z" fill="#DDDCD7"/>
<path id="Vector_7" d="M1851.07 1428.5H1791.85C1789.31 1428.5 1787.01 1430 1786.01 1432.34C1776.8 1453.76 1749.31 1495.12 1784.1 1518.23C1784.39 1518.42 1784.69 1518.59 1785.01 1518.73C1791.48 1521.68 1861.55 1551.57 1927.2 1494.79C1927.42 1494.6 1927.63 1494.4 1927.82 1494.19C1966.53 1451.31 1967.52 1412.5 1967.52 1412.5C1967.52 1412.5 1967.52 1384.5 1943.52 1371.5C1919.9 1358.7 1904.99 1345.91 1902.62 1335.97C1902.54 1335.65 1902.49 1335.34 1902.47 1335.01C1901.99 1327.39 1911.71 1314.3 1917.49 1302.65C1918.23 1301.16 1919.51 1300.04 1921.08 1299.48C1927.04 1297.36 1940.88 1294.02 1934.52 1311.49C1929.48 1325.89 1927.08 1328.49 1925.52 1330.49C1925.52 1330.49 1916.52 1343.49 1934.14 1342.54C1934.39 1342.51 1934.65 1342.49 1934.91 1342.49H1987.52C1987.52 1342.49 1998.52 1343.49 2003.52 1325.49C2003.52 1325.49 2007.47 1313.63 2013.42 1286.95C2013.49 1286.65 2013.54 1286.33 2013.56 1286.02C2016.02 1255.43 1966.52 1248.5 1966.52 1248.5C1966.52 1248.5 1879.52 1239.5 1845.52 1293.5C1811.52 1347.5 1817.52 1367.5 1817.52 1367.5C1817.52 1367.5 1820.52 1386.5 1837.52 1398.5C1852.69 1409.21 1867.86 1422.3 1870.95 1425C1871.32 1425.32 1871.72 1425.6 1872.15 1425.83C1877.73 1428.75 1889.02 1436.73 1865.1 1475.01C1864.09 1476.62 1862.42 1477.7 1860.54 1477.96C1854.96 1478.73 1843.52 1479.72 1843.52 1474.5C1842.73 1469.75 1851.33 1450.59 1856.94 1437.36C1858.72 1433.15 1855.64 1428.5 1851.07 1428.5Z" fill="#0097D6"/>
<path id="Vector_8" d="M2135.52 1227.5L2153.52 1186.5H2237.52L2220.52 1227.5H2234.59C2237.89 1227.5 2240.14 1230.86 2238.88 1233.91L2222.52 1273.5H2200.52L2128.11 1439.84C2127.18 1441.97 2127.87 1444.47 2129.77 1445.82L2131.43 1447.01C2132.79 1447.98 2134.41 1448.5 2136.08 1448.5H2148.52L2130.52 1492.5H2073.52C2067.11 1492.3 2037.37 1492.01 2037.52 1467.5C2036.52 1451.5 2047.52 1432.5 2052.52 1421.5L2116.52 1273.5H2096.52L2115.05 1232.9C2116.55 1229.61 2119.84 1227.5 2123.45 1227.5H2135.52Z" fill="#DDDCD7"/>
<path id="Vector_9" d="M2083.52 1258.5L2101.52 1217.5H2185.52L2168.52 1258.5H2182.59C2185.89 1258.5 2188.14 1261.86 2186.88 1264.91L2170.52 1304.5H2148.52L2076.11 1470.84C2075.18 1472.97 2075.87 1475.47 2077.77 1476.82L2079.43 1478.01C2080.79 1478.98 2082.41 1479.5 2084.08 1479.5H2096.52L2078.52 1523.5H2021.52C2015.11 1523.3 1985.37 1523.01 1985.52 1498.5C1984.52 1482.5 1995.52 1463.5 2000.52 1452.5L2064.52 1304.5H2044.52L2063.05 1263.9C2064.55 1260.61 2067.84 1258.5 2071.45 1258.5H2083.52Z" fill="#0097D6"/>
<path id="Vector_10" d="M2302.52 1363.5H2408.52C2408.52 1363.5 2497.52 1218.5 2379.52 1216.5C2283.52 1216.5 2256.52 1280.5 2240.52 1314.5C2240.52 1313.5 2201.52 1401.5 2201.52 1401.5C2201.52 1401.5 2171.52 1467.5 2209.52 1487.5C2254.52 1510.5 2334.52 1500.5 2379.52 1426.5C2379.03 1426.54 2395.52 1396.5 2400.52 1378.5H2322.52C2314.13 1389.69 2301.87 1446.43 2277.11 1448.87C2273.9 1449.19 2271.15 1446.51 2271.49 1443.31C2273.91 1420.72 2302.52 1363.5 2302.52 1363.5Z" fill="#DDDCD7"/>
<path id="Vector_11" d="M2218.49 1474.3C2218.15 1477.5 2220.9 1480.18 2224.11 1479.86C2248.86 1477.42 2261.13 1420.68 2269.52 1409.49H2347.52C2342.52 1427.49 2326.03 1457.53 2326.52 1457.49C2281.52 1531.49 2201.52 1541.49 2156.52 1518.49C2118.52 1498.49 2148.52 1432.49 2148.52 1432.49C2148.52 1432.49 2187.52 1344.49 2187.52 1345.49C2203.52 1311.49 2230.52 1247.49 2326.52 1247.49C2444.52 1249.49 2355.52 1394.49 2355.52 1394.49H2249.52C2249.52 1394.5 2220.91 1451.72 2218.49 1474.3ZM2269.52 1347.5H2291.52L2304.52 1317.5C2307.45 1308.09 2310.52 1300.5 2303.96 1297.47C2300.01 1295.5 2291.16 1300.36 2285.44 1311.69L2269.52 1347.5Z" fill="#0097D6"/>
<path id="Vector_12" d="M2506.52 1432.5C2506.52 1432.5 2559.6 1308.95 2574.71 1276.35C2576.07 1273.42 2578.39 1271.04 2581.29 1269.64C2592.24 1264.35 2592.39 1274.9 2591.18 1282.84C2590.56 1286.88 2589.38 1290.82 2587.72 1294.55L2573.52 1326.5H2651.52C2656.41 1316.99 2684.52 1264.5 2661.52 1238.5C2636.66 1203.45 2545.52 1215.5 2509.52 1255.5C2501.21 1262.99 2495.11 1270.67 2490.72 1277.14C2489.34 1279.17 2488.17 1281.32 2487.2 1283.58L2425.52 1427.5C2425.52 1427.5 2399.52 1499.5 2481.52 1499.5C2563.52 1499.5 2601.52 1447.5 2628.52 1382.5H2551.52L2532.52 1430.5C2532.52 1430.5 2521.52 1451.5 2511.52 1449.5C2498.52 1449.5 2506.52 1432.5 2506.52 1432.5Z" fill="#DDDCD7"/>
<path id="Vector_13" d="M2454.52 1462.5C2454.52 1462.5 2507.6 1338.95 2522.71 1306.35C2524.07 1303.42 2526.39 1301.04 2529.29 1299.64C2540.24 1294.35 2540.39 1304.9 2539.18 1312.84C2538.56 1316.88 2537.38 1320.82 2535.72 1324.55L2521.52 1356.5H2599.52C2604.41 1346.99 2632.52 1294.5 2609.52 1268.5C2584.66 1233.45 2493.52 1245.5 2457.52 1285.5C2449.21 1292.99 2443.11 1300.67 2438.72 1307.14C2437.34 1309.17 2436.17 1311.32 2435.2 1313.58L2373.52 1457.5C2373.52 1457.5 2347.52 1529.5 2429.52 1529.5C2511.52 1529.5 2549.52 1477.5 2576.52 1412.5H2499.52L2480.52 1460.5C2480.52 1460.5 2469.52 1481.5 2459.52 1479.5C2446.52 1479.5 2454.52 1462.5 2454.52 1462.5Z" fill="#0097D6"/>
<path id="Vector_14" d="M2102.52 2098.5L2095.52 2117.5H2176.52L2255.52 1936.5C2255.52 1936.5 2308.52 1845.5 2211.52 1842.5C2108.52 1844.5 2078.52 1907.5 2062.52 1953.5H2140.52L2156.52 1916.5C2156.52 1916.5 2168.52 1889.5 2182.52 1895.5C2192.52 1896.5 2168.52 1942.5 2168.52 1942.5C2156.52 1956.5 2111.56 1968.01 2079.52 1980.5C2079.52 1980.5 2051.44 1989.56 2039.25 2011.99C2037.22 2015.72 2035 2019.34 2032.63 2022.86C2024.5 2034.96 2015.14 2049.54 2008.52 2078.5C2000.52 2113.5 2021.52 2119.5 2021.52 2119.5C2068.13 2134.93 2090.52 2107.5 2102.52 2098.5Z" fill="#DDDCD7"/>
<path id="Vector_15" d="M1973.52 2151.5C1973.52 2151.5 1952.52 2145.5 1960.52 2110.5C1967.14 2081.54 1976.5 2066.96 1984.63 2054.86C1987 2051.34 1989.22 2047.72 1991.25 2043.99C2003.44 2021.56 2031.52 2012.5 2031.52 2012.5C2063.56 2000.01 2108.52 1988.5 2120.52 1974.5C2120.52 1974.5 2144.52 1928.5 2134.52 1927.5C2120.52 1921.5 2108.52 1948.5 2108.52 1948.5L2092.52 1985.5H2014.52C2030.52 1939.5 2060.52 1876.5 2163.52 1874.5C2260.52 1877.5 2207.52 1968.5 2207.52 1968.5L2128.52 2149.5H2047.52L2054.52 2130.5C2042.52 2139.5 2020.13 2166.93 1973.52 2151.5ZM2098.02 2026C2098.02 2026 2068.02 2031 2048.02 2088C2040.16 2115.5 2063.17 2113.1 2073.47 2083.63C2074.01 2082.08 2074.64 2080.56 2075.28 2079.04L2098.02 2026Z" fill="#0097D6"/>
<path id="Vector_16" d="M2370.52 1793.5L2227.52 2121.5H2306.52L2317.52 2103.5C2327.52 2109.5 2322.52 2130.5 2357.52 2127.5C2407.52 2123.5 2423.52 2105.5 2460.52 2023.5C2497.52 1941.5 2511.52 1905.5 2511.52 1905.5C2533.52 1868.5 2506.52 1816.5 2423.52 1867.5C2432.62 1847.2 2445.15 1819.06 2451.85 1804C2454.05 1799.06 2450.43 1793.5 2445.02 1793.5H2370.52Z" fill="#DDDCD7"/>
<path id="Vector_17" d="M2394.02 1823.5C2399.43 1823.5 2403.04 1829.06 2400.85 1834C2394.15 1849.06 2381.62 1877.2 2372.52 1897.5C2455.52 1846.5 2482.52 1898.5 2460.52 1935.5C2460.52 1935.5 2446.52 1971.5 2409.52 2053.5C2372.52 2135.5 2356.52 2153.5 2306.52 2157.5C2271.52 2160.5 2276.52 2139.5 2266.52 2133.5L2255.52 2151.5H2176.52L2319.52 1823.5H2394.02ZM2284.52 2097.5C2280.52 2104.5 2290.52 2122.5 2307.52 2093.5L2377.52 1931.5C2377.52 1931.5 2378.52 1926.5 2365.52 1928.5C2354.52 1931.5 2354.52 1940.5 2351.52 1945.5C2348.52 1950.5 2284.52 2097.5 2284.52 2097.5Z" fill="#0097D6"/>
</g>
</g>
<defs>
<clipPath id="clip0_1_87">
<rect width="3147.77" height="3147.77" fill="white"/>
</clipPath>
</defs>
</svg>
